<svg xmlns="http://www.w3.org/2000/svg" xmlns:xlink="http://www.w3.org/1999/xlink" width="500" zoomAndPan="magnify" viewBox="0 0 375 374.999991" height="500" preserveAspectRatio="xMidYMid meet" version="1.0"><defs><clipPath id="11981884ed"><path d="M 0.574219 0.101562 L 137.375 0.101562 L 137.375 136.898438 L 0.574219 136.898438 Z M 0.574219 0.101562 " clip-rule="nonzero"/></clipPath><clipPath id="ad3adc2aad"><path d="M 68.976562 0.101562 C 31.199219 0.101562 0.574219 30.722656 0.574219 68.5 C 0.574219 106.277344 31.199219 136.898438 68.976562 136.898438 C 106.75 136.898438 137.375 106.277344 137.375 68.5 C 137.375 30.722656 106.75 0.101562 68.976562 0.101562 Z M 68.976562 0.101562 " clip-rule="nonzero"/></clipPath><clipPath id="281ab05cf5"><path d="M 0.574219 0.101562 L 137.375 0.101562 L 137.375 136.898438 L 0.574219 136.898438 Z M 0.574219 0.101562 " clip-rule="nonzero"/></clipPath><clipPath id="b3cc9546df"><path d="M 68.976562 0.101562 C 31.199219 0.101562 0.574219 30.722656 0.574219 68.5 C 0.574219 106.277344 31.199219 136.898438 68.976562 136.898438 C 106.75 136.898438 137.375 106.277344 137.375 68.5 C 137.375 30.722656 106.75 0.101562 68.976562 0.101562 Z M 68.976562 0.101562 " clip-rule="nonzero"/></clipPath><clipPath id="ffa7ffecb9"><rect x="0" width="138" y="0" height="137"/></clipPath><clipPath id="fc07e954af"><path d="M 67.648438 0.101562 L 140.425781 0.101562 L 140.425781 136.898438 L 67.648438 136.898438 Z M 67.648438 0.101562 " clip-rule="nonzero"/></clipPath><clipPath id="bc8f8d4f17"><path d="M 0.648438 0.101562 L 73.425781 0.101562 L 73.425781 136.898438 L 0.648438 136.898438 Z M 0.648438 0.101562 " clip-rule="nonzero"/></clipPath><clipPath id="5d4c7cedc8"><rect x="0" width="74" y="0" height="137"/></clipPath><clipPath id="1d0b4e17d7"><rect x="0" width="141" y="0" height="138"/></clipPath></defs><g transform="matrix(1, 0, 0, 1, 117, 119)"><g clip-path="url(#1d0b4e17d7)"><g clip-path="url(#11981884ed)"><g clip-path="url(#ad3adc2aad)"><g transform="matrix(1, 0, 0, 1, -0.000000000000014211, 0)"><g clip-path="url(#ffa7ffecb9)"><g clip-path="url(#281ab05cf5)"><g clip-path="url(#b3cc9546df)"><path fill="#ffffff" d="M 0.574219 0.101562 L 137.375 0.101562 L 137.375 136.898438 L 0.574219 136.898438 Z M 0.574219 0.101562 " fill-opacity="1" fill-rule="nonzero"/></g></g></g></g></g></g><g clip-path="url(#fc07e954af)"><g transform="matrix(1, 0, 0, 1, 67, 0)"><g clip-path="url(#5d4c7cedc8)"><g clip-path="url(#bc8f8d4f17)"><path fill="#ffffff" d="M 0.648438 0.101562 L 73.425781 0.101562 L 73.425781 136.839844 L 0.648438 136.839844 Z M 0.648438 0.101562 " fill-opacity="1" fill-rule="nonzero"/></g></g></g></g></g></g></svg>